HIERARCHY
ROOT Joint1
{
	OFFSET 0.000000 0.000000 0.000000
	CHANNELS 6 Xposition Yposition Zposition Xrotation Yrotation Zrotation
	JOINT Joint2
	{
		OFFSET -0.000000 0.000000 1.456275
		CHANNELS 6 Xposition Yposition Zposition Xrotation Yrotation Zrotation
		JOINT Joint3
		{
			OFFSET -0.000000 0.000002 1.471446
			CHANNELS 6 Xposition Yposition Zposition Xrotation Yrotation Zrotation
			JOINT Joint4
			{
				OFFSET 0.625745 0.000000 0.917755
				CHANNELS 6 Xposition Yposition Zposition Xrotation Yrotation Zrotation
				JOINT Joint5
				{
					OFFSET -0.629534 0.000001 0.940221
					CHANNELS 6 Xposition Yposition Zposition Xrotation Yrotation Zrotation
					JOINT Joint6
					{
						OFFSET -0.000001 0.113772 1.960660
						CHANNELS 6 Xposition Yposition Zposition Xrotation Yrotation Zrotation
						JOINT Joint7
						{
							OFFSET -0.669733 -0.113771 0.388340
							CHANNELS 6 Xposition Yposition Zposition Xrotation Yrotation Zrotation
							End Site
							{
								OFFSET 0.005509 0.005509 0.438980
							}
						}
					}
				}
			}
		}
	}
}
MOTION
Frames: 12
Frame Time: 0.041667
0.000000 0.000000 0.000000 -0.000000 1.019410 -56.249955 -0.000000 0.000000 1.456275 0.000002 -39.267577 -0.000000 -0.000000 0.000002 1.471446 -0.000005 -1.133467 -73.518203 0.625745 0.000000 0.917755 0.000020 94.243005 0.000021 -0.629533 0.000001 0.940221 0.000001 1.709735 58.760739 -0.000001 0.113772 1.960660 -88.303868 114.134251 -0.000003 -0.669734 -0.113771 0.388340 -0.376091 3.511411 116.095949 
0.000000 0.000000 0.000000 -0.000000 1.019410 -54.165360 -0.000000 0.000000 1.456275 0.000002 -39.479392 0.000000 -0.000000 0.000002 1.471446 -0.000007 -1.133466 -70.794419 0.625744 0.000000 0.917755 0.000061 95.754717 -0.000001 -0.629534 0.000001 0.940221 -0.000001 1.709735 56.581994 -0.000001 0.113772 1.960660 -88.303868 113.238669 0.000009 -0.669733 -0.113771 0.388340 -0.387860 3.515355 116.795292 
0.000000 0.000000 0.000000 -0.000000 1.019410 -52.081227 -0.000000 0.000000 1.456275 0.000003 -39.691172 0.000000 -0.000000 0.000002 1.471446 -0.000002 -1.133464 -68.071236 0.625745 0.000000 0.917755 0.000035 97.266088 0.000013 -0.629533 0.000001 0.940221 0.000001 1.709735 54.403737 -0.000001 0.113772 1.960660 -88.303875 112.343293 0.000004 -0.669733 -0.113771 0.388341 -0.399682 3.519160 117.494499 
0.000000 0.000000 0.000000 -0.000000 1.019410 -50.297110 -0.000000 0.000000 1.456275 0.000001 -39.872448 -0.000002 -0.000000 0.000002 1.471446 -0.000002 -1.133461 -65.740065 0.625744 0.000000 0.917755 0.000021 98.559903 0.000005 -0.629533 0.000001 0.940221 -0.000002 1.709736 52.539051 -0.000001 0.113772 1.960660 -88.303868 111.576795 0.000007 -0.669733 -0.113771 0.388340 -0.409844 3.522298 118.093042 
0.000000 0.000000 0.000000 -0.000000 1.019410 -48.989617 -0.000000 0.000000 1.456275 0.000001 -40.005306 -0.000002 -0.000000 0.000002 1.471445 -0.000004 -1.133464 -64.031678 0.625745 0.000001 0.917755 0.000011 99.508063 -0.000001 -0.629533 0.000001 0.940221 -0.000002 1.709738 51.172529 -0.000001 0.113773 1.960660 -88.303875 111.015081 0.000003 -0.669733 -0.113771 0.388340 -0.417305 3.524532 118.531704 
0.000000 0.000000 0.000000 -0.000000 1.019410 -47.845465 -0.000000 0.000000 1.456275 0.000004 -40.121563 -0.000000 -0.000000 0.000002 1.471446 -0.000000 -1.133467 -62.536693 0.625745 0.000000 0.917755 0.000008 100.337788 0.000004 -0.629534 0.000001 0.940221 -0.000001 1.709738 49.976699 -0.000000 0.113772 1.960661 -88.303875 110.523519 -0.000002 -0.669733 -0.113771 0.388341 -0.423850 3.526432 118.915561 
0.000000 0.000000 0.000000 -0.000000 1.019410 -46.428850 -0.000000 -0.000000 1.456275 0.000002 -40.265512 0.000000 -0.000000 0.000002 1.471446 0.000002 -1.133465 -60.685712 0.625745 0.000000 0.917755 -0.000001 101.365082 -0.000003 -0.629534 0.000001 0.940221 -0.000000 1.709737 48.496109 -0.000001 0.113773 1.960661 -88.303875 109.914922 0.000002 -0.669733 -0.113771 0.388340 -0.431967 3.528736 119.390805 
0.000000 0.000000 0.000000 -0.000000 1.019410 -44.494673 -0.000000 0.000000 1.456275 0.000000 -40.462041 0.000003 -0.000000 0.000002 1.471446 -0.000003 -1.133465 -58.158473 0.625745 0.000000 0.917755 0.000001 102.767709 -0.000002 -0.629534 0.000001 0.940221 -0.000001 1.709738 46.474588 -0.000001 0.113772 1.960661 -88.303875 109.083961 0.000006 -0.669733 -0.113771 0.388339 -0.443088 3.531770 120.039728 
0.000000 0.000000 0.000000 -0.000000 1.019410 -42.560596 -0.000000 0.000000 1.456275 -0.000001 -40.658559 0.000004 -0.000000 0.000002 1.471446 -0.000002 -1.133459 -55.631351 0.625745 0.000000 0.917755 0.000007 104.170275 -0.000004 -0.629534 0.000001 0.940221 -0.000000 1.709737 44.453173 -0.000001 0.113772 1.960660 -88.303875 108.253048 0.000006 -0.669733 -0.113772 0.388339 -0.454241 3.534676 120.688582 
0.000000 0.000000 0.000000 -0.000000 1.019410 -41.144206 -0.000000 0.000000 1.456275 -0.000000 -40.802488 -0.000003 -0.000000 0.000002 1.471446 -0.000002 -1.133462 -53.780667 0.625744 0.000000 0.917755 0.000005 105.197406 -0.000002 -0.629534 0.000001 0.940221 -0.000001 1.709737 42.972822 -0.000001 0.113772 1.960660 -88.303875 107.644539 0.000007 -0.669733 -0.113771 0.388340 -0.462428 3.536728 121.163786 
0.000000 0.000000 0.000000 -0.000000 1.019410 -40.000156 -0.000000 0.000000 1.456275 0.000001 -40.918728 0.000003 -0.000000 0.000002 1.471446 -0.000002 -1.133462 -52.285819 0.625745 0.000000 0.917755 0.000004 106.027055 -0.000002 -0.629534 0.000001 0.940221 0.000000 1.709736 41.777105 -0.000001 0.113772 1.960661 -88.303875 107.153025 0.000008 -0.669733 -0.113771 0.388341 -0.469052 3.538327 121.547588 
0.000000 0.000000 0.000000 -0.000000 1.019410 -38.692339 -0.000000 0.000000 1.456275 0.000002 -41.051619 0.000002 -0.000000 0.000002 1.471445 -0.000000 -1.133466 -50.576998 0.625745 0.000000 0.917755 0.000006 106.975461 -0.000002 -0.629533 0.000001 0.940221 -0.000000 1.709736 40.410227 -0.000001 0.113772 1.960660 -88.303868 106.591167 0.000008 -0.669733 -0.113771 0.388340 -0.476639 3.540108 121.986359 
